<svg xmlns="http://www.w3.org/2000/svg" width="108" height="20" fill="none"><g fill="#1F2937" clip-path="url(#a)"><path d="M8.359 20H7.72c-1.658 0-2.655 0-3.418-.142l4.411-5.84zm7.295-.124c-.75.123-1.73.124-3.315.124h-.755l-.356-5.985zm4.211-4.041q-.047.23-.116.436a5.45 5.45 0 0 1-1.526 2.328l-4.973-5.577zM1.772 18.54A5.45 5.45 0 0 1 .31 16.27a4 4 0 0 1-.127-.48l6.508-2.768zm18.258-6.23c0 .561-.002 1.048-.008 1.474l-5.906-2.281h5.913zm-14.202-.807L.035 13.74C.03 13.324.03 12.852.03 12.31v-.807zM12.339 0c2.08 0 3.121 0 3.962.28a5.46 5.46 0 0 1 3.448 3.449c.28.84.28 1.88.28 3.962v2.317h-6.245l4.505-1.915-1.337-.887-4.37 1.688 2.052-2.715-1.476-.404-2.265 2.54-.17-2.86H9.222l-.172 2.86-2.263-2.54-1.475.404L7.36 8.893 2.992 7.206l-1.336.887 4.504 1.915H.03V7.691c0-2.081 0-3.122.28-3.962A5.46 5.46 0 0 1 3.758.28C4.598 0 5.64 0 7.72 0zm34.327 15.722c.47.88 1.378 1.436 2.547 1.436s2.077-.555 2.547-1.436h1.759c-.581 1.76-2.197 2.938-4.306 2.938s-3.724-1.177-4.306-2.938zM72.281 6.38c2.68 0 4.557 1.843 4.557 4.49 0 2.799-2.082 4.386-4.284 4.386-1.365 0-2.526-.614-3.14-1.707v5.087H67.79v-7.75c0-2.748 1.879-4.506 4.49-4.506m.017 1.502c-1.724 0-2.885 1.229-2.885 2.936s1.161 2.936 2.885 2.936c1.741 0 2.902-1.23 2.902-2.936 0-1.707-1.161-2.936-2.902-2.936M39.558 6.38c2.664 0 4.541 1.877 4.541 4.438s-1.877 4.438-4.54 4.438-4.54-1.878-4.54-4.438 1.877-4.438 4.54-4.438m0 1.502c-1.74 0-2.901 1.229-2.901 2.936s1.16 2.936 2.902 2.936c1.74 0 2.902-1.23 2.902-2.936 0-1.707-1.161-2.936-2.902-2.936m9.835-1.498h4.41v1.45h-1.137c.689.773 1.087 1.805 1.087 2.984 0 2.56-1.877 4.438-4.54 4.438s-4.54-1.878-4.54-4.438 1.877-4.438 4.54-4.438q.09 0 .18.004m-.18 1.498c-1.741 0-2.902 1.229-2.902 2.936s1.16 2.936 2.902 2.936c1.74 0 2.901-1.23 2.901-2.936 0-1.707-1.16-2.936-2.901-2.936m9.654-1.502c2.663 0 4.54 1.877 4.54 4.438s-1.877 4.438-4.54 4.438-4.54-1.878-4.54-4.438 1.877-4.438 4.54-4.438m0 1.502c-1.741 0-2.902 1.229-2.902 2.936s1.161 2.936 2.902 2.936 2.902-1.23 2.902-2.936c0-1.707-1.161-2.936-2.902-2.936m22.07-1.502c2.015 0 3.261 1.144 3.295 2.595h-1.605c-.05-.65-.648-1.127-1.672-1.127-1.076 0-1.69.512-1.69 1.178 0 .802.888.887 1.928 1.024 1.469.188 3.26.46 3.261 2.39 0 1.706-1.382 2.816-3.499 2.816s-3.448-1.127-3.5-2.663h1.639c.034.7.683 1.195 1.861 1.195 1.228 0 1.86-.53 1.86-1.195 0-.802-.888-.905-1.945-1.041-1.469-.188-3.244-.461-3.244-2.39 0-1.656 1.297-2.782 3.311-2.782m6.084 4.625c0 1.827 1.008 2.749 2.544 2.749s2.543-.922 2.543-2.749V6.601h1.621v4.404c0 2.8-1.672 4.25-4.164 4.25s-4.165-1.433-4.165-4.25V6.601h1.621zm-58.75 2.425h6.264v1.604H26.53V3.871h1.74zm37.98 1.604h-1.622V6.601h1.621zM104.41 6.38c1.98 0 3.482 1.195 3.482 3.772v4.882h-1.622v-4.882c0-1.57-.836-2.27-2.014-2.27-1.143 0-1.997.734-1.997 2.27v4.882h-1.622v-4.882c0-1.536-.87-2.27-2.014-2.27-1.178 0-2.014.7-2.014 2.27v4.882h-1.622v-4.882c0-2.577 1.503-3.772 3.483-3.772 1.297 0 2.389.58 2.969 1.673.581-1.093 1.656-1.673 2.971-1.673M65.432 3c.648 0 1.126.478 1.126 1.126 0 .649-.478 1.144-1.127 1.144-.648 0-1.126-.495-1.126-1.144S64.783 3 65.431 3"/></g><defs><clipPath id="a"><path fill="#fff" d="M0 0h108v20H0z"/></clipPath></defs></svg>